<mxfile host="app.diagrams.net" modified="2020-11-17T12:23:02.099Z" agent="5.0 (Windows NT 10.0; Win64; x64) AppleWebKit/537.36 (KHTML, like Gecko) Chrome/86.0.4240.183 Safari/537.36" etag="lDt7UlsMkV-R-99uJEtI" version="13.9.9" type="github">
  <diagram id="aCsQ_rJ05yFmWRAsDQV_" name="第 1 页">
    <mxGraphModel dx="1630" dy="748" grid="1" gridSize="10" guides="1" tooltips="1" connect="1" arrows="1" fold="1" page="1" pageScale="1" pageWidth="827" pageHeight="1169" math="0" shadow="0">
      <root>
        <mxCell id="0" />
        <mxCell id="1" parent="0" />
        <mxCell id="19_Dc7JFGsiwhifbvOjf-4" value="" style="edgeStyle=orthogonalEdgeStyle;rounded=0;orthogonalLoop=1;jettySize=auto;html=1;" edge="1" parent="1" source="19_Dc7JFGsiwhifbvOjf-2" target="19_Dc7JFGsiwhifbvOjf-3">
          <mxGeometry relative="1" as="geometry" />
        </mxCell>
        <mxCell id="19_Dc7JFGsiwhifbvOjf-2" value="开始" style="strokeWidth=2;html=1;shape=mxgraph.flowchart.terminator;whiteSpace=wrap;" vertex="1" parent="1">
          <mxGeometry x="140" y="10" width="100" height="40" as="geometry" />
        </mxCell>
        <mxCell id="19_Dc7JFGsiwhifbvOjf-6" value="" style="edgeStyle=orthogonalEdgeStyle;rounded=0;orthogonalLoop=1;jettySize=auto;html=1;" edge="1" parent="1" source="19_Dc7JFGsiwhifbvOjf-3" target="19_Dc7JFGsiwhifbvOjf-5">
          <mxGeometry relative="1" as="geometry" />
        </mxCell>
        <mxCell id="19_Dc7JFGsiwhifbvOjf-3" value="mapper interface" style="whiteSpace=wrap;html=1;strokeWidth=2;" vertex="1" parent="1">
          <mxGeometry x="130" y="110" width="120" height="60" as="geometry" />
        </mxCell>
        <mxCell id="19_Dc7JFGsiwhifbvOjf-8" value="" style="edgeStyle=orthogonalEdgeStyle;rounded=0;orthogonalLoop=1;jettySize=auto;html=1;" edge="1" parent="1" source="19_Dc7JFGsiwhifbvOjf-5" target="19_Dc7JFGsiwhifbvOjf-7">
          <mxGeometry relative="1" as="geometry" />
        </mxCell>
        <mxCell id="19_Dc7JFGsiwhifbvOjf-5" value="jdk proxy" style="whiteSpace=wrap;html=1;strokeWidth=2;" vertex="1" parent="1">
          <mxGeometry x="130" y="220" width="120" height="60" as="geometry" />
        </mxCell>
        <mxCell id="19_Dc7JFGsiwhifbvOjf-10" value="" style="edgeStyle=orthogonalEdgeStyle;rounded=0;orthogonalLoop=1;jettySize=auto;html=1;fontSize=10;" edge="1" parent="1" source="19_Dc7JFGsiwhifbvOjf-7" target="19_Dc7JFGsiwhifbvOjf-9">
          <mxGeometry relative="1" as="geometry" />
        </mxCell>
        <mxCell id="19_Dc7JFGsiwhifbvOjf-7" value="MapperProxy.invoke" style="whiteSpace=wrap;html=1;strokeWidth=2;align=center;fontSize=10;" vertex="1" parent="1">
          <mxGeometry x="130" y="340" width="120" height="60" as="geometry" />
        </mxCell>
        <mxCell id="19_Dc7JFGsiwhifbvOjf-9" value="&lt;pre style=&quot;text-align: left ; background-color: rgb(43 , 43 , 43) ; color: rgb(169 , 183 , 198) ; font-family: &amp;#34;consolas&amp;#34;&quot;&gt;(&lt;/pre&gt;&lt;pre style=&quot;background-color: rgb(43 , 43 , 43) ; color: rgb(169 , 183 , 198) ; font-family: &amp;#34;consolas&amp;#34;&quot;&gt;   Object proxy&lt;span style=&quot;color: rgb(204 , 120 , 50)&quot;&gt;, &lt;/span&gt;&lt;/pre&gt;&lt;pre style=&quot;background-color: rgb(43 , 43 , 43) ; color: rgb(169 , 183 , 198) ; font-family: &amp;#34;consolas&amp;#34;&quot;&gt;    Method method&lt;span style=&quot;color: rgb(204 , 120 , 50)&quot;&gt;, &lt;/span&gt;&lt;/pre&gt;&lt;pre style=&quot;background-color: rgb(43 , 43 , 43) ; color: rgb(169 , 183 , 198) ; font-family: &amp;#34;consolas&amp;#34;&quot;&gt;  Object[] args&lt;/pre&gt;&lt;pre style=&quot;text-align: left ; background-color: rgb(43 , 43 , 43) ; color: rgb(169 , 183 , 198) ; font-family: &amp;#34;consolas&amp;#34;&quot;&gt;)&lt;/pre&gt;" style="shape=note;whiteSpace=wrap;html=1;backgroundOutline=1;darkOpacity=0.05;fontSize=10;strokeWidth=2;" vertex="1" parent="1">
          <mxGeometry x="-160" y="305" width="200" height="130" as="geometry" />
        </mxCell>
      </root>
    </mxGraphModel>
  </diagram>
</mxfile>
